# xmcd
#
# Track frame offsets:
#	150
#	21363
#	44678
#	65275
#	85963
#	106615
#	125046
#	141254
#	158956
#	175075
#	189699
#	209974
#	225651
#
# Disc length: 3280 seconds
#
# Revision: 1
# Processed by: cddbd v1.4PL0 Copyright (c) Steve Scherf et al.
# Submitted via: audiograbber 1.81.03
#
DISCID=bf0cce0d
DTITLE=Delbi Smart - World of Emotions
DYEAR=1996
DGENRE=
TTITLE0=They Found Love
TTITLE1=Honey Moon
TTITLE2=Peculiar
TTITLE3=It Ain't Love
TTITLE4=Who Are You Loving
TTITLE5=Deserts and Oceans
TTITLE6=Wild Pony
TTITLE7=Train
TTITLE8=Your Guarded Heart
TTITLE9=Spoonin'
TTITLE10=Stranded
TTITLE11=This Love Of Mine
TTITLE12=I Love My Child
EXTD=
EXTT0=
EXTT1=
EXTT2=
EXTT3=
EXTT4=
EXTT5=
EXTT6=
EXTT7=
EXTT8=
EXTT9=
EXTT10=
EXTT11=
EXTT12=
PLAYORDER=
